<svg xmlns="http://www.w3.org/2000/svg" width="1200" height="630" viewBox="0 0 1200 630">
  <defs>
    <linearGradient id="bg" x1="0" y1="0" x2="0" y2="1">
      <stop offset="0%" stop-color="#0f172a"/>
      <stop offset="100%" stop-color="#1e293b"/>
    </linearGradient>
    <linearGradient id="wg" x1="0" y1="0" x2="1" y2="0">
      <stop offset="0%" stop-color="#1e40af"/>
      <stop offset="100%" stop-color="#60a5fa"/>
    </linearGradient>
    <linearGradient id="waveg" x1="0" y1="0" x2="1" y2="0">
      <stop offset="0%" stop-color="#0e7490"/>
      <stop offset="100%" stop-color="#22d3ee"/>
    </linearGradient>
  </defs>
  <rect width="1200" height="630" fill="url(#bg)"/>
  <!-- Wind icon (centered, large) -->
  <g transform="translate(460,120) scale(2.5)">
    <g fill="none" stroke="url(#wg)" stroke-linecap="round">
      <path d="M18 16 Q30 12, 40 16 Q45 18, 43 13 Q41 9, 36 12" stroke-width="3.5"/>
      <path d="M14 28 Q30 22, 46 28 Q53 31, 50 24 Q47 18, 42 22" stroke-width="4"/>
      <path d="M10 40 Q28 33, 50 40 Q56 42, 54 36 Q51 30, 46 34" stroke-width="4.5" opacity="0.8"/>
    </g>
    <path d="M8 52 Q16 46, 24 52 Q32 58, 40 52 Q48 46, 56 52" fill="none" stroke="url(#waveg)" stroke-width="3" stroke-linecap="round" opacity="0.6"/>
  </g>
  <!-- Title -->
  <text x="600" y="440" text-anchor="middle" font-family="system-ui,-apple-system,sans-serif" font-size="56" font-weight="800" fill="#e2e8f0">MeteoMapGal</text>
  <!-- Subtitle -->
  <text x="600" y="490" text-anchor="middle" font-family="system-ui,-apple-system,sans-serif" font-size="24" fill="#94a3b8">Meteo interactivo para Galicia</text>
  <!-- Features line -->
  <text x="600" y="540" text-anchor="middle" font-family="system-ui,-apple-system,sans-serif" font-size="18" fill="#64748b">90+ estaciones  ·  12 boyas  ·  6 fuentes  ·  Tiempo real</text>
</svg>
